HIERARCHY
ROOT Hips
{
	OFFSET -14.64140 90.27770 -84.91600
	CHANNELS 6 Xposition Yposition Zposition Zrotation Xrotation Yrotation
	JOINT Spine
	{
		OFFSET 0.00000 13.20850 -1.60436
		CHANNELS 3 Zrotation Xrotation Yrotation
		JOINT Spine1
		{
			OFFSET 0.00000 8.61716 0.00000
			CHANNELS 3 Zrotation Xrotation Yrotation
			JOINT Spine2
			{
				OFFSET 0.00000 8.61717 0.00000
				CHANNELS 3 Zrotation Xrotation Yrotation
				JOINT Spine3
				{
					OFFSET 0.00000 8.61717 0.00000
					CHANNELS 3 Zrotation Xrotation Yrotation
					JOINT Neck
					{
						OFFSET 0.00000 11.07920 1.10792
						CHANNELS 3 Zrotation Xrotation Yrotation
						JOINT Neck1
						{
							OFFSET 0.00000 7.08032 0.00000
							CHANNELS 3 Zrotation Xrotation Yrotation
							JOINT Head
							{
								OFFSET 0.00000 7.08031 0.00000
								CHANNELS 3 Zrotation Xrotation Yrotation
								End site
								{
									OFFSET 0.00000 0.00000 0.00000
								}
							}
						}
					}
					JOINT RightShoulder
					{
						OFFSET -0.01000 7.91373 5.19711
						CHANNELS 3 Zrotation Xrotation Yrotation
						JOINT RightArm
						{
							OFFSET -18.41580 0.00000 0.00000
							CHANNELS 3 Zrotation Xrotation Yrotation
							JOINT RightForeArm
							{
								OFFSET -29.11090 0.00000 0.00000
								CHANNELS 3 Zrotation Xrotation Yrotation
								JOINT RightHand
								{
									OFFSET -24.65040 0.00000 0.00000
									CHANNELS 3 Zrotation Xrotation Yrotation
									JOINT RightHandThumb1
									{
										OFFSET -5.35114 -0.85590 3.97906
										CHANNELS 3 Zrotation Xrotation Yrotation
										JOINT RightHandThumb2
										{
											OFFSET -4.52789 0.00000 0.00000
											CHANNELS 3 Zrotation Xrotation Yrotation
											JOINT RightHandThumb3
											{
												OFFSET -2.46976 0.00000 0.00000
												CHANNELS 3 Zrotation Xrotation Yrotation
												End site
												{
													OFFSET 0.00000 0.00000 0.00000
												}
											}
										}
									}
									JOINT RightHandIndex1
									{
										OFFSET -14.26970 0.00000 2.88139
										CHANNELS 3 Zrotation Xrotation Yrotation
										JOINT RightHandIndex2
										{
											OFFSET -5.48836 0.00000 0.00000
											CHANNELS 3 Zrotation Xrotation Yrotation
											JOINT RightHandIndex3
											{
												OFFSET -3.01859 0.00000 0.00000
												CHANNELS 3 Zrotation Xrotation Yrotation
												End site
												{
													OFFSET 0.00000 0.00000 0.00000
												}
											}
										}
									}
									JOINT RightHandMiddle1
									{
										OFFSET -14.26970 0.00000 -0.09147
										CHANNELS 3 Zrotation Xrotation Yrotation
										JOINT RightHandMiddle2
										{
											OFFSET -6.17441 0.00000 0.00000
											CHANNELS 3 Zrotation Xrotation Yrotation
											JOINT RightHandMiddle3
											{
												OFFSET -3.56743 0.00000 0.00000
												CHANNELS 3 Zrotation Xrotation Yrotation
												End site
												{
													OFFSET 0.00000 0.00000 0.00000
												}
											}
										}
									}
									JOINT RightHandRing1
									{
										OFFSET -12.69180 0.00000 -3.06433
										CHANNELS 3 Zrotation Xrotation Yrotation
										JOINT RightHandRing2
										{
											OFFSET -5.62556 0.00000 0.00000
											CHANNELS 3 Zrotation Xrotation Yrotation
											JOINT RightHandRing3
											{
												OFFSET -3.56744 0.00000 0.00000
												CHANNELS 3 Zrotation Xrotation Yrotation
												End site
												{
													OFFSET 0.00000 0.00000 0.00000
												}
											}
										}
									}
									JOINT RightHandPinky1
									{
										OFFSET -11.11390 0.00000 -6.03719
										CHANNELS 3 Zrotation Xrotation Yrotation
										JOINT RightHandPinky2
										{
											OFFSET -4.52789 0.00000 0.00000
											CHANNELS 3 Zrotation Xrotation Yrotation
											JOINT RightHandPinky3
											{
												OFFSET -2.46976 0.00000 0.00000
												CHANNELS 3 Zrotation Xrotation Yrotation
												End site
												{
													OFFSET 0.00000 0.00000 0.00000
												}
											}
										}
									}
								}
							}
						}
					}
					JOINT LeftShoulder
					{
						OFFSET 0.01000 7.91373 5.19711
						CHANNELS 3 Zrotation Xrotation Yrotation
						JOINT LeftArm
						{
							OFFSET 18.41580 0.00000 0.00000
							CHANNELS 3 Zrotation Xrotation Yrotation
							JOINT LeftForeArm
							{
								OFFSET 29.11090 0.00000 0.00000
								CHANNELS 3 Zrotation Xrotation Yrotation
								JOINT LeftHand
								{
									OFFSET 24.65040 0.00000 0.00000
									CHANNELS 3 Zrotation Xrotation Yrotation
									JOINT LeftHandThumb1
									{
										OFFSET 5.35114 -0.85590 3.97906
										CHANNELS 3 Zrotation Xrotation Yrotation
										JOINT LeftHandThumb2
										{
											OFFSET 4.52789 0.00000 0.00000
											CHANNELS 3 Zrotation Xrotation Yrotation
											JOINT LeftHandThumb3
											{
												OFFSET 2.46977 0.00000 0.00000
												CHANNELS 3 Zrotation Xrotation Yrotation
												End site
												{
													OFFSET 0.00000 0.00000 0.00000
												}
											}
										}
									}
									JOINT LeftHandIndex1
									{
										OFFSET 14.26970 0.00000 2.88139
										CHANNELS 3 Zrotation Xrotation Yrotation
										JOINT LeftHandIndex2
										{
											OFFSET 5.48836 0.00000 0.00000
											CHANNELS 3 Zrotation Xrotation Yrotation
											JOINT LeftHandIndex3
											{
												OFFSET 3.01859 0.00000 0.00000
												CHANNELS 3 Zrotation Xrotation Yrotation
												End site
												{
													OFFSET 0.00000 0.00000 0.00000
												}
											}
										}
									}
									JOINT LeftHandMiddle1
									{
										OFFSET 14.26970 0.00000 -0.09147
										CHANNELS 3 Zrotation Xrotation Yrotation
										JOINT LeftHandMiddle2
										{
											OFFSET 6.17440 0.00000 0.00000
											CHANNELS 3 Zrotation Xrotation Yrotation
											JOINT LeftHandMiddle3
											{
												OFFSET 3.56744 0.00000 0.00000
												CHANNELS 3 Zrotation Xrotation Yrotation
												End site
												{
													OFFSET 0.00000 0.00000 0.00000
												}
											}
										}
									}
									JOINT LeftHandRing1
									{
										OFFSET 12.69180 0.00000 -3.06433
										CHANNELS 3 Zrotation Xrotation Yrotation
										JOINT LeftHandRing2
										{
											OFFSET 5.62556 0.00000 0.00000
											CHANNELS 3 Zrotation Xrotation Yrotation
											JOINT LeftHandRing3
											{
												OFFSET 3.56744 0.00000 0.00000
												CHANNELS 3 Zrotation Xrotation Yrotation
												End site
												{
													OFFSET 0.00000 0.00000 0.00000
												}
											}
										}
									}
									JOINT LeftHandPinky1
									{
										OFFSET 11.11390 0.00000 -6.03719
										CHANNELS 3 Zrotation Xrotation Yrotation
										JOINT LeftHandPinky2
										{
											OFFSET 4.52789 0.00000 0.00000
											CHANNELS 3 Zrotation Xrotation Yrotation
											JOINT LeftHandPinky3
											{
												OFFSET 2.46976 0.00000 0.00000
												CHANNELS 3 Zrotation Xrotation Yrotation
												End site
												{
													OFFSET 0.00000 0.00000 0.00000
												}
											}
										}
									}
								}
							}
						}
					}
					JOINT pCube4
					{
						OFFSET 0.00000 10.91090 1.10792
						CHANNELS 3 Zrotation Xrotation Yrotation
						End site
						{
							OFFSET 0.00000 0.00000 0.00000
						}
					}
				}
			}
		}
	}
	JOINT RightUpLeg
	{
		OFFSET -9.98441 0.00000 0.00000
		CHANNELS 3 Zrotation Xrotation Yrotation
		JOINT RightLeg
		{
			OFFSET 0.00000 -42.11790 0.00000
			CHANNELS 3 Zrotation Xrotation Yrotation
			JOINT RightFoot
			{
				OFFSET 0.00000 -45.00020 -0.00001
				CHANNELS 3 Zrotation Xrotation Yrotation
				JOINT RightForeFoot
				{
					OFFSET 0.00000 -3.74820 0.00000
					CHANNELS 3 Zrotation Xrotation Yrotation
					JOINT RightToeBase
					{
						OFFSET 0.00000 0.06325 14.43120
						CHANNELS 3 Zrotation Xrotation Yrotation
						End site
						{
							OFFSET 0.00000 0.00000 0.00000
						}
					}
				}
			}
		}
	}
	JOINT LeftUpLeg
	{
		OFFSET 9.98441 0.00000 0.00000
		CHANNELS 3 Zrotation Xrotation Yrotation
		JOINT LeftLeg
		{
			OFFSET 0.00000 -42.11800 0.00000
			CHANNELS 3 Zrotation Xrotation Yrotation
			JOINT LeftFoot
			{
				OFFSET 0.00000 -45.00070 0.00000
				CHANNELS 3 Zrotation Xrotation Yrotation
				JOINT LeftForeFoot
				{
					OFFSET 0.00000 -3.74824 0.00000
					CHANNELS 3 Zrotation Xrotation Yrotation
					JOINT LeftToeBase
					{
						OFFSET 0.00000 0.06325 14.43110
						CHANNELS 3 Zrotation Xrotation Yrotation
						End site
						{
							OFFSET 0.00000 0.00000 0.00000
						}
					}
				}
			}
		}
	}
}
MOTION
Frames: 4
Frame Time: 0.050000
0.045841654155390134 -0.0014115381251463212 -0.008540820632628506 0.014808322251323391 0.009819801903908128 0.025298534109914575 1.3561735058831235 2.3998315819466614 -1.4609609638542385 -0.45723800868638165 3.9128907580090835 0.33983950885572983 -0.7096910608062356 -1.4417950126289576 1.8822321633662908 -0.834587299406136 -0.6337907295278622 -0.22737494880950615 0.0069878559491401634 12.434879214016654 -0.8486000802250543 0.4477089049864921 -1.117876482711195 -3.0012752412519905 0.9014059679417635 -17.076220125546694 -0.2892733010731719 -4.517965111107714 1.883549816379728 -16.097775891127057 72.55035870624874 15.262272765207724 6.9052989398581 0.3367787486636804 1.4309676693822402 65.5588257773355 27.33451977863275 -0.2851825456107552 -5.663096933127976 4.518416341280495 -0.10761103263972616 -1.577162373666468 0.0006443762839969744 0.017853233914062617 -56.26792662681989 -0.005169383973041597 0.0016087493194288122 -56.23783382237044 -38.730330077167814 0.018110835550445497 0.004109465987995538 -0.020407013114897704 -0.000877758822730994 -0.029699356374972515 0.00890845515338362 -0.01727187925798455 -0.0006886654939092529 -36.736939178848104 -0.024627300094251306 -0.016339995455333284 0.025216848405057186 0.04423211860737462 0.007236456679876116 0.02057864046996142 0.01094025608981042 0.018382459516072317 -19.763573855699107 0.009989163028113425 0.009679163271516399 0.03889833392175475 0.0016587828422829375 -0.036866992646524356 -0.02609269131621177 -0.017663400918721962 -0.02615412445495398 24.030983773290483 -0.013502327326933102 -0.049995038805155816 28.864337854577656 -0.023762495812076335 0.0373946513935381 28.82937529033903 0.0003263540747675463 -0.03258292556817837 4.359031925879475 1.3863883927365714 14.86704801745205 -79.14594384185209 22.114855148740528 -2.11822054480352 9.441005198556375 3.9236418959441637 -36.829240461717895 -28.53113004983162 9.248605607898972 -5.08515950139737 -0.5154757087436032 0.05976419711086067 -8.145402121618408 0.03756432185584272 0.041635117930212434 44.55833254630039 -0.007325017161474098 0.02057019111167652 44.59127841534804 12.468357362895546 -0.011900566308664687 -0.011973789943165718 -0.0243557170926978 -0.023341950090769305 0.03513269522890522 0.012841496807326077 -0.018287562883417704 0.04119965403740143 11.08166232753596 0.01112713194775751 0.048765487445809295 0.010757167022212268 -0.022050614629540277 0.021690148513910226 -0.01126247826722671 0.0058709237919014985 -0.03151107695101775 4.752391629843638 0.02302862262580411 -0.01618056974768239 0.0447965422385097 -0.04073812984915774 -0.04737987469594362 -0.038205583501874876 0.03848357037038367 -0.012859640390001065 -5.617899695915357 0.01941999659396114 0.020138261430542006 -6.7321822769293345 -0.01378547015466659 0.04281597902990702 -6.692552835509191 0.016410971757770298 -0.048192014100549935 0.016006696591157527 -0.022977593644483766 0.007547901269181125 8.029237025652847 3.493867280230927 -19.202512094736864 0.046908818879070766 10.430435144956308 0.015485595964252563 -5.5954838913524485 -15.637783365406364 3.1982024348765865 -0.01701482213361377 0.012086165736138108 -0.003190192740470545 -0.04137035642152227 4.676704100843962 0.012738396565221197 12.422908348136671 -8.207533501568948 6.8374101756984595 0.04746150272182839 46.374536504893264 0.0074350571595746175 -4.36349883200723 -14.747018802355207 -3.802705233365529 -0.01875057146443766 -0.010150506661427701 -0.03562872265220077 0.04886349616823389 -10.70929677227161 -0.019538551937882245 
0.031246904894642172 0.04250843557566819 -0.03251430215746486 0.016061699346935743 -0.043972368562215945 -0.00010853847100371599 1.770867080315517 2.6118311917011243 -1.6285583199798672 -0.5645203267144712 3.852406849603937 0.31625205673235396 -0.6407768254036353 -1.3864107028887511 1.7581289262082465 -0.8438756897039343 -0.6209216975561247 -0.22519480019364801 0.07051142287060604 12.335295157963058 -0.867695223388578 0.4605653941843869 -1.1074934508388659 -3.0459264570219555 1.021584637920765 -17.081417747024073 -0.29716612720459884 -5.100584521539217 2.0731867215077444 -16.439416210627428 74.38553895596584 13.914373852033833 6.063822770495959 -1.6097154981722088 0.7843806994214297 61.838285008773404 27.008333335365634 -0.2761002621817373 -5.710633506364829 4.479429491725614 -0.12442954417612388 -1.5999058597865277 0.010263485141248032 0.03215282269129453 -56.264379824724266 -0.011981253756310766 -0.018609452549589716 -56.222796170423784 -38.81263397060254 0.00497485973174047 -0.03373267450679537 -0.01762985129039444 0.023241100594889194 0.03982979665984227 -0.04685357405623904 -0.026940891765969362 0.04233962755739115 -36.717915030775 0.007098032483609621 0.01065682427439521 0.011916572355140445 0.038524062074809254 -0.012581002084886111 -0.04785109662768562 -0.031125313710628683 -0.0215921961145253 -19.748704446282403 -2.4897668563239782e-05 -0.009605359610640086 0.007642453222463248 0.0012958135839018917 0.042356590971612595 0.009098804801730876 -0.0010249618445636786 -0.022211307298533507 24.050227331359725 0.006610451961745551 -0.011313683191958662 28.828798844992146 -0.03148947266959633 -0.007163626362516145 28.872829310188177 0.013291183251086401 0.008646479817405654 4.7686266986294585 1.472842110281062 14.909266296359077 -79.31650515280595 21.774314975786677 -2.611902373436503 9.384344988154869 3.5585929308947533 -36.158291610065305 -27.71168700381856 8.119221705951118 -4.062425482167534 -0.4725741697353206 0.04691220555145141 -8.095764500605789 -0.00039230981388274844 0.004397924305098297 44.600857189463426 0.04494476166591224 -0.025697584233617086 44.56598470612347 12.472356549477713 -0.009139214257140987 -0.04293056000047242 -0.03757479848108942 -0.042409736808764295 -0.03429042791102912 -0.031450188990758 -0.023106905575180074 0.023827259502502484 11.110081997673351 0.005392099177882685 0.010385983555219084 -0.04039735765125716 -0.04620100961413136 0.04981534578017037 -0.0020641806709513814 0.0005642121057819559 0.0004829357762704834 4.787409907448876 0.03960614415915924 -0.0011231194359178273 -0.002203903385095989 -0.049152786266702914 -0.008230108329959204 -0.019424693338636775 -0.03215762843590468 -0.045883471072665584 -5.558537064690681 -0.03960935776337331 -0.02258033453038277 -6.755112027610035 -0.03361509364129927 -0.04282235257359004 -6.680218556005597 -0.03599157429515892 -0.011175149303609792 0.039246286697793384 -0.015540388576994565 -0.022393475651253842 8.038254044441869 3.5227507185226314 -19.201674493708847 -0.026528554717867754 10.357443550752409 0.0013858793217212395 -5.653125750969499 -15.686704518020651 3.2405111529033044 -0.021387287407179947 0.014038947543125764 0.02523582092034176 -0.030981524940484218 4.659843060447789 0.020135216233412905 12.454434045102335 -8.258282451436965 6.8542204576795465 -0.044996890868170075 46.40964006342115 -0.024764008412901786 -4.306684249051578 -14.776378134037833 -3.8035345744069 -0.014620115365616913 -0.022778519723915647 0.02645624742025694 -0.04261191832318066 -10.730777668460403 -0.0076486241947989735 
0.01068439622243832 0.031997650216931454 0.006397013919290909 -0.017720784767090127 -0.007011339478408928 0.024239239353331502 2.320284094692299 2.6951010341974992 -1.6927012470870324 -0.5415263053548163 3.829302282562985 0.3665318298673616 -0.6625135056702511 -1.3651533762426704 1.6454545708175585 -0.7899961127485218 -0.5870654812710457 -0.18911130749978022 0.10465752259383476 12.340193255125225 -1.0408251183392343 0.5358887138447371 -1.0669625339997726 -3.02689834450341 1.00841683355646 -17.180878248277327 -0.2977611228487656 -5.873648660857405 2.3249775781293187 -16.806966025653725 76.20283433075257 13.03486037110772 5.610797547900196 -3.572867137280533 0.17689425867049502 59.582568717746156 26.64271041777292 -0.28873626433720373 -5.732070025560549 4.556526628072003 -0.10671134880525222 -1.5894736553611184 0.0197849241955647 -0.015152614322386038 -56.23471621012883 0.006296579974073017 0.04673543997717746 -56.201619066831434 -38.721350068263405 -0.032002954169919225 -0.03009783214404258 0.0054623026042784585 -0.032673487803988654 -0.017546381327120813 -0.02790002251469846 -0.020845763216814972 -0.04488928824936242 -36.74003451694202 0.04382118631809498 -0.03940531857128071 -0.009813133869496508 0.041924947475842814 -0.014700843620595216 0.02969505102894745 -0.021155511924283218 0.008348835145077189 -19.762895697887693 0.016761360678127134 -0.006297475688231471 0.04939156432366418 -0.007985910738617187 0.01600059806257619 0.023981259286190625 0.0005904454069923339 0.03349226292441678 24.086329522873264 -0.008721783285694857 0.0023984787757810144 28.857389229834187 -0.043048574985243976 0.0074305582677529035 28.88104912654611 -0.021127762558570688 0.035775515768827724 5.354254985424817 1.5581743417323322 15.02999032107609 -79.55322935196631 21.174297142303 -3.157451320781603 9.364888677465315 3.6936603109024686 -35.79550815097487 -27.017904557589862 7.104619911789254 -3.206088370679511 -0.4556369309822086 0.041100288387134046 -8.15140624796869 -0.03776085607614311 -0.01739059437335159 44.52858545228516 -0.023893487536710608 0.038549301882979496 44.60156456102471 12.495827049781807 -0.03740743983186825 -0.04303387811844071 -0.039158351140672266 -0.025442944570921076 0.023007075113202827 -0.011519073601128048 -0.04699620417552499 -0.012624304028175581 11.134385447080199 0.049407716168630725 0.000883136759916401 0.0330192013036515 -0.018971236230502817 -0.0497486691212354 -0.02470391388192681 -0.024379423381063817 -0.0072792291565516925 4.729150254581569 -0.00015037879197890696 0.0023656704127942713 0.02356138707149772 -0.03057978283438359 -0.04073535236034491 0.0002559049596284691 0.021458369553821657 0.0482275532197909 -5.605150951252783 0.0080699906988263 -0.03728536086825801 -6.707017921139567 0.043790376753503446 -0.0025470796795795405 -6.701386125222623 -0.007331474865603061 0.028079230208040578 0.016216687567851933 -0.03953729559306642 -0.012324317185253774 8.037384628185487 3.4681480890951035 -19.19744637689573 0.029604312413831442 10.383802008234902 0.02385210408281271 -5.6580791927747764 -15.681227428544343 3.150685003480896 -0.046652558869294564 0.042407617546635516 0.0084319949128298 -0.017657317524524277 4.671733204948594 0.03730216455562427 12.468445528159222 -8.207763810835434 6.833315367798254 -0.003565199472428973 46.42695856962415 -0.03448179309757555 -4.315844340974546 -14.788125617772707 -3.8739313134921822 0.004608469808644121 0.00917158024837499 0.040012119250754284 0.014856817682783496 -10.767307334500629 -0.016844422426663074 
0.02293323744329985 -0.003308083173157763 0.02806380246929533 -0.0010465812286577663 0.04372637183404109 -0.00780580525787355 2.8595201103353016 2.7743460428560516 -1.8409716161501672 -0.5985728649410549 3.779960870167219 0.32514869756705256 -0.6349986826460068 -1.3272949988423572 1.5929463666354902 -0.7475201665128149 -0.5439070187431528 -0.2098873532611605 0.21012297223080062 12.40775231629556 -1.2489907951292167 0.5528703359214412 -0.9961266765460723 -3.2411665654029065 1.1573189075376276 -17.26483279771118 -0.33972097599483164 -6.651985403942662 2.4959513781557767 -17.190968583918536 77.66504709648764 12.476228081634419 5.160528469568506 -5.822627080218925 0.23697523656781494 57.47297186696344 26.18588195211618 -0.3227593734438535 -5.615538707757255 4.547101305979406 -0.1174892035685259 -1.5542871283547788 0.017531310280230916 0.018738095875595825 -56.20888963751102 0.04440155330065918 -0.03333004534992576 -56.26094896091519 -38.73422591667177 -0.006836999745016948 -0.03713031575811689 0.026885076437018828 0.0034732256280159183 0.01119820451654162 -0.040697061440544455 0.04799765260642744 0.03105404013861664 -36.67954120667446 0.031736831794413035 -0.031877914821226296 -0.030767238434147935 0.013956761263749173 0.009880999854479666 0.04130211400499296 -0.04926439929464156 0.035335842853999655 -19.718261280448978 0.013054684769659009 -0.04472472364760584 0.007597718900147173 -0.023687588210522355 0.013849039197552293 0.04838331155274609 -0.0232871269264321 -0.03419861845138389 24.049445486877794 0.009352923968167129 0.0045363408436831015 28.818057073841818 0.008882821977422078 -0.02422205520390902 28.838077796239425 0.011395108090269652 -0.020394637205421322 6.019327404292576 1.7323022450655872 15.108277156295864 -79.76051828185949 20.768856911575334 -3.716524669014286 9.219888102280441 4.220968881772584 -35.73860354403451 -26.53172853287902 6.063584138683122 -2.4168049345578417 -0.4739505556615919 0.09270028507405213 -8.143833498306646 0.01860899688987403 0.04910999377601376 44.55770162496902 -0.020914811328451566 -0.01924046419280227 44.547507714803736 12.422987670598767 -0.03994039527591742 -0.0007214468009111538 -0.02482437890692759 -0.015362480085364809 0.018505450550656943 -0.024254796934786806 -0.029161139441833777 -0.015116868278623598 11.102066129191433 0.010100196215419091 -0.02472284032428794 -0.03889966805328047 0.0012474993729731916 0.03954254514013629 0.029277461308394342 0.03054263917222358 -0.03375215851947385 4.7232276852403565 -0.01336928322037913 0.03253526024499157 0.019653342511301495 -0.0046242423819305096 0.004759863733403932 0.019483244731218013 -0.015382639798993883 0.015054159062796656 -5.589420354881645 0.04501907232648584 -0.023676660800944816 -6.765121517768713 0.04214164499960499 -0.045099917806687574 -6.686090060981088 0.04855881647536797 0.02379199882887928 0.019140108043698704 0.008891329430376594 -0.015349018775578038 8.029534528670219 3.4977625398291416 -19.22133182580546 0.04855138979369216 10.427559813395746 0.03793479221041339 -5.629246069758875 -15.702939470325369 3.15923131344983 -0.04286680501537879 0.03065859325160889 -0.006277391483035663 -0.026838214193905374 4.702022983461793 -0.027642250233467704 12.442100406832514 -8.262750191777675 6.9095656841457185 0.04359553092635134 46.39167464322665 -0.03563663838195893 -4.374797066851973 -14.734244648799192 -3.8129781787025165 -0.04450346719005727 -0.016691326602236854 -0.0032852094045413296 -0.008169813741284376 -10.753778692502044 0.0038639719996288934 
